<?xml version="1.0" encoding="UTF-8"?><svg id="b" xmlns="http://www.w3.org/2000/svg" viewBox="0 0 422.97 325.83"><g id="c"><g><g><path d="m130.95,258.17V84.07c0-7.44-1.18-12.52-3.53-15.25-2.36-2.73-6.76-4.09-13.21-4.09h-49.85v193.44H0V0h130.95c20.58,0,36.46,5.58,47.62,16.74,11.16,11.16,16.74,27.16,16.74,47.99v193.44h-64.36Z"/><path d="m310.26,64.73c-10.42,0-15.62,4.96-15.62,14.88,0,4.71,1.42,8.74,4.28,12.09,2.85,3.35,6.63,5.02,11.35,5.02h6.32v64.73h-22.69c-20.34,0-36.21-5.58-47.62-16.74-11.41-11.16-17.11-27.16-17.11-47.99v-31.99c0-21.08,5.58-37.14,16.74-48.18,11.16-11.03,27.16-16.55,47.99-16.55h129.09v64.73h-112.72Zm-81.1,193.44v-64.36h113.46c10.17,0,15.25-5.08,15.25-15.25,0-4.71-1.43-8.74-4.28-12.09-2.85-3.35-6.51-5.02-10.97-5.02h-6.7v-64.73h22.32c20.83,0,36.83,5.64,47.99,16.93,11.16,11.29,16.74,27.22,16.74,47.8v32.36c0,20.83-5.52,36.77-16.55,47.8-11.04,11.04-27.1,16.55-48.17,16.55h-129.09Z"/></g><g><path d="m0,295.7h2.75l19.88,28.43-3.62-3.47h1.29v-24.95h2.78v29.66h-2.78L.43,296.95l3.64,3.45h-1.32v24.95H0v-29.66Z"/><path d="m49.66,295.7h17.9v2.53h-15.11v10.69h14.35v2.51h-14.35v11.41h15.11v2.53h-17.9v-29.66Z"/><path d="m102.53,309.49l-.68,2.24v-1.32l-10.24-14.72h3.35l8.67,12.62h1.34l-1.91,1.03,9.41-13.65h3.21l-10.42,14.84v1.29l-.7-2.22,10.96,15.75h-3.35l-8.63-12.56h-1.34l1.91-1.01-9.41,13.57h-3.19l11.02-15.87Z"/><path d="m148.19,298.22h-9.81v-2.53h22.41v2.53h-9.8v27.13h-2.8v-27.13Z"/><path d="m219.03,324.82c-1.6-.67-2.86-1.62-3.8-2.86s-1.47-2.68-1.59-4.34l-.02-.29h2.8l.04.29c.14,1.14.56,2.13,1.27,2.97.71.84,1.66,1.49,2.86,1.95,1.19.46,2.57.69,4.13.69s2.9-.23,4.04-.69c1.14-.46,2.04-1.12,2.67-1.97.64-.86.96-1.85.96-2.99v-.02c0-1.45-.5-2.61-1.5-3.48-1-.87-2.64-1.56-4.93-2.09l-3.25-.72c-2.86-.66-4.97-1.63-6.32-2.91s-2.02-2.98-2.02-5.09v-.02c.01-1.58.45-2.97,1.32-4.17s2.06-2.15,3.58-2.84c1.52-.69,3.25-1.03,5.2-1.03s3.62.35,5.12,1.04c1.49.69,2.69,1.65,3.59,2.88.9,1.23,1.4,2.66,1.51,4.29l.02.29h-2.8l-.02-.27c-.15-1.16-.55-2.16-1.2-3-.65-.84-1.51-1.48-2.58-1.94s-2.3-.69-3.7-.69-2.68.23-3.76.68c-1.08.45-1.92,1.08-2.52,1.88-.6.8-.89,1.74-.89,2.81v.04c0,1.37.5,2.49,1.5,3.36,1,.87,2.58,1.55,4.73,2.05l3.25.72c3.03.69,5.21,1.66,6.54,2.92,1.33,1.26,1.99,2.99,1.99,5.18v.02c0,1.7-.44,3.18-1.31,4.43s-2.1,2.22-3.7,2.91c-1.6.68-3.48,1.03-5.64,1.03s-3.94-.34-5.54-1.01Z"/><path d="m269.26,295.7h2.08v3.41h-.72l-9.58,26.25h-2.96l11.18-29.66Zm-5.39,18.15h13.53l.93,2.41h-15.38l.92-2.41Zm6.8-14.74v-3.41h1.36l11.14,29.66h-2.94l-9.56-26.25Z"/><path d="m307.49,295.7h2.8v27.13h14.84v2.53h-17.64v-29.66Z"/><path d="m353.86,323.96c-2.01-1.25-3.57-3.01-4.67-5.3-1.1-2.29-1.65-4.99-1.65-8.12v-.04c0-3.12.55-5.83,1.65-8.11s2.66-4.05,4.68-5.29c2.01-1.25,4.39-1.87,7.13-1.87s5.16.62,7.16,1.87c2.01,1.25,3.56,3.01,4.66,5.29,1.1,2.28,1.64,4.99,1.64,8.11v.04c0,3.12-.55,5.83-1.64,8.12-1.1,2.29-2.65,4.06-4.65,5.3-2,1.25-4.39,1.87-7.15,1.87s-5.16-.62-7.17-1.87Zm12.82-2.29c1.58-1.05,2.81-2.53,3.67-4.43.86-1.9,1.29-4.14,1.29-6.7v-.04c0-2.59-.44-4.83-1.31-6.73-.87-1.9-2.1-3.36-3.69-4.4-1.59-1.03-3.47-1.55-5.63-1.55s-4.03.52-5.62,1.55-2.83,2.5-3.7,4.39c-.87,1.89-1.3,4.14-1.3,6.74v.04c0,2.58.43,4.82,1.3,6.72.87,1.91,2.1,3.38,3.7,4.42s3.48,1.56,5.64,1.56,4.06-.52,5.64-1.57Z"/><path d="m399.89,295.7h2.75l19.88,28.43-3.62-3.47h1.29v-24.95h2.77v29.66h-2.77l-19.88-28.41,3.64,3.45h-1.32v24.95h-2.75v-29.66Z"/></g></g></g></svg>